<?xml version="1.0" encoding="UTF-8"?>
<svg width="33px" height="36px" viewBox="0 0 33 36" version="1.1" xmlns="http://www.w3.org/2000/svg" xmlns:xlink="http://www.w3.org/1999/xlink">
    <!-- Generator: Sketch 53.2 (72643) - https://sketchapp.com -->
    <title>attract-talent</title>
    <desc>Created with Sketch.</desc>
    <g id="attract-talent" stroke="none" stroke-width="1" fill="none" fill-rule="evenodd">
        <g fill-rule="nonzero">
            <path d="M0,31.64 C3,28.4 4.67,21.37 5.29,18.32 C5.89928186,15.2375698 8.43706257,12.9062114 11.56,12.56 C11.8297608,12.5439285 12.1002392,12.5439285 12.37,12.56 C9.55,12.91 9.83,16.3 9.83,16.3 L9.83,31.39 C9.83898706,32.0637803 9.44685404,32.678512 8.83208048,32.9543998 C8.21730691,33.2302876 7.49738988,33.114603 7,32.66 C6.59581705,33.0266898 6.03796603,33.1727599 5.50594056,33.051211 C4.97391509,32.9296621 4.53484311,32.5558305 4.33,32.05 C2.34,33.23 0,31.64 0,31.64 Z" id="Path" fill="#F7EFE8"></path>
            <path d="M32.6,31.64 C29.6,28.4 27.92,21.37 27.3,18.32 C26.6932312,15.2245809 24.1372607,12.8876936 21,12.56 C20.7302392,12.5439285 20.4597608,12.5439285 20.19,12.56 C23.01,12.91 22.72,16.3 22.72,16.3 L22.72,31.39 C22.72,31.840868 22.8991066,32.2732697 23.2179185,32.5920815 C23.5367303,32.9108934 23.969132,33.09 24.42,33.09 C24.8302575,33.0878774 25.2253791,32.9348123 25.53,32.66 C25.9360554,33.0264395 26.495077,33.17227 27.0283909,33.0508814 C27.5617048,32.9294928 28.002541,32.5560827 28.21,32.05 C30.26,33.23 32.6,31.64 32.6,31.64 Z" id="Path" fill="#F7EFE8"></path>
            <path d="M16.28,3.15 C15.9817662,3.15 15.74,2.90823376 15.74,2.61 L15.74,0.54 C15.74,0.241766235 15.9817662,5.47846538e-17 16.28,0 C16.5782338,-5.47846538e-17 16.82,0.241766235 16.82,0.54 L16.82,2.61 C16.82,2.90823376 16.5782338,3.15 16.28,3.15 Z" id="Path" fill="#282827"></path>
            <path d="M13.44,3.65 C13.2134023,3.65189795 13.0097237,3.51211845 12.93,3.3 L12.17,1.2 C12.06912,0.921151243 12.2119733,0.613123923 12.49,0.51 C12.7715346,0.408440588 13.0825993,0.550641559 13.19,0.83 L14,2.93 C14.10088,3.20884876 13.9580267,3.51687608 13.68,3.62 C13.6026885,3.64540696 13.5211867,3.65559467 13.44,3.65 L13.44,3.65 Z" id="Path" fill="#282827"></path>
            <path d="M10.78,4.94 C10.6205007,4.9371662 10.4704162,4.86395425 10.37,4.74 L9,3.08 C8.79155536,2.86954413 8.79155536,2.53045587 9,2.32 C9.22835323,2.13270374 9.56386557,2.15919155 9.76,2.38 L11.16,4.05 C11.3503533,4.27925551 11.3190269,4.61937162 11.09,4.81 C11.0017651,4.88298461 10.8939006,4.92821811 10.78,4.94 L10.78,4.94 Z" id="Path" fill="#282827"></path>
            <path d="M22,5.12 C21.8588505,5.13727922 21.7170207,5.0936393 21.61,5 C21.3809731,4.80937162 21.3496467,4.46925551 21.54,4.24 L22.89,2.63 C23.0108498,2.47393267 23.2072239,2.39623817 23.4021399,2.42737422 C23.5970558,2.45851027 23.7594531,2.59351524 23.8256688,2.77946459 C23.8918846,2.96541394 23.8513671,3.17267597 23.72,3.32 L22.37,4.93 C22.2750017,5.03767739 22.1428628,5.10553245 22,5.12 L22,5.12 Z" id="Path" fill="#282827"></path>
            <path d="M19.12,3.82 C19.0608208,3.83403557 18.9991792,3.83403557 18.94,3.82 C18.8047298,3.77271405 18.6943714,3.67266896 18.6340828,3.54267175 C18.5737942,3.41267453 18.5687139,3.26380481 18.62,3.13 L19.37,1 C19.4194427,0.864016111 19.5213903,0.753563115 19.6529853,0.693405391 C19.7845803,0.633247667 19.934813,0.628418275 20.07,0.68 C20.3480267,0.783123923 20.49088,1.09115124 20.39,1.37 L19.63,3.45 C19.5544896,3.66813724 19.3508007,3.81591153 19.12,3.82 L19.12,3.82 Z" id="Path" fill="#282827"></path>
            <rect id="Rectangle" fill="#F7EFE8" x="12.7" y="22.95" width="7.19" height="12.29"></rect>
            <path d="M19.89,35.79 C19.594004,35.7846654 19.3553346,35.545996 19.35,35.25 L19.35,23.49 L13.24,23.49 L13.24,35.25 C13.24,35.5482338 12.9982338,35.79 12.7,35.79 C12.404004,35.7846654 12.1653346,35.545996 12.16,35.25 L12.16,22.41 L20.43,22.41 L20.43,35.25 C20.43,35.5482338 20.1882338,35.79 19.89,35.79 L19.89,35.79 Z" id="Path" fill="#282827"></path>
            <path d="M19.89,35.84 C19.5663939,35.83465 19.30535,35.5736061 19.3,35.25 L19.3,23.54 L13.3,23.54 L13.3,35.25 C13.3,35.575848 13.035848,35.84 12.71,35.84 C12.3863939,35.83465 12.12535,35.5736061 12.12,35.25 L12.12,22.36 L20.49,22.36 L20.49,35.25 C20.4900227,35.4082259 20.4264914,35.5598303 20.3136726,35.6707687 C20.2008538,35.7817072 20.0482031,35.8426818 19.89,35.84 L19.89,35.84 Z M13.19,23.44 L19.4,23.44 L19.4,35.25 C19.4,35.5261424 19.6238576,35.75 19.9,35.75 C20.1761424,35.75 20.4,35.5261424 20.4,35.25 L20.4,22.46 L12.21,22.46 L12.21,35.25 C12.21,35.5261424 12.4338576,35.75 12.71,35.75 C12.9861424,35.75 13.21,35.5261424 13.21,35.25 L13.19,23.44 Z" id="Shape" fill="#282828"></path>
            <path d="M16.3,35.79 C16.0017662,35.79 15.76,35.5482338 15.76,35.25 L15.76,23 C15.76,22.7017662 16.0017662,22.46 16.3,22.46 C16.5982338,22.46 16.84,22.7017662 16.84,23 L16.84,35.3 C16.8140995,35.5785519 16.5797509,35.7912016 16.3,35.79 Z" id="Path" fill="#282827"></path>
            <path d="M16.3,35.84 C15.974152,35.84 15.71,35.575848 15.71,35.25 L15.71,23 C15.71,22.674152 15.974152,22.41 16.3,22.41 C16.6236061,22.41535 16.88465,22.6763939 16.89,23 L16.89,35.3 C16.8594731,35.6039476 16.605456,35.8364379 16.3,35.84 Z M16.3,22.46 C16.0293805,22.46 15.81,22.6793805 15.81,22.95 L15.81,35.25 C15.81,35.5261424 16.0338576,35.75 16.31,35.75 C16.5861424,35.75 16.81,35.5261424 16.81,35.25 L16.81,23 C16.8247125,22.8580674 16.7768244,22.7167722 16.678848,22.6130325 C16.5808716,22.5092927 16.442541,22.4534153 16.3,22.46 L16.3,22.46 Z" id="Shape" fill="#282828"></path>
            <path d="M16.3,11.61 C15.1706491,11.6140479 14.1502488,10.9368587 13.7152573,9.89463408 C13.2802657,8.85240949 13.5164916,7.65074426 14.3136334,6.85073506 C15.1107752,6.05072586 16.3115845,5.81018672 17.3553642,6.24143322 C18.399144,6.67267971 19.0799927,7.69064189 19.08,8.82 C19.0800099,10.3569776 17.8369678,11.6044911 16.3,11.61 Z M16.3,7.12 C15.6065662,7.11595655 14.9793465,7.53109527 14.7121096,8.17097905 C14.4448728,8.81086284 14.5905364,9.54878345 15.0808765,10.0391235 C15.5712166,10.5294636 16.3091372,10.6751272 16.9490209,10.4078904 C17.5889047,10.1406535 18.0040434,9.5134338 18,8.82 C17.9945386,7.88338745 17.2366125,7.12546144 16.3,7.12 L16.3,7.12 Z" id="Shape" fill="#282827"></path>
            <path d="M16.3,11.66 C15.1504259,11.6640478 14.1117937,10.9746764 13.6690631,9.91376793 C13.2263325,8.85285951 13.4668363,7.62968831 14.2782781,6.81537923 C15.0897199,6.00107016 16.3120351,5.75625333 17.3744986,6.195239 C18.4369621,6.63422466 19.1299929,7.67041875 19.13,8.82 C19.1300097,10.3845917 17.864582,11.6544909 16.3,11.66 Z M16.3,6.09 C15.1873683,6.07376246 14.1754126,6.73203415 13.7392623,7.755746 C13.3031121,8.77945786 13.529396,9.96527888 14.3118701,10.7564472 C15.0943442,11.5476155 16.2775925,11.7869881 17.3060611,11.3621759 C18.3345297,10.9373636 19.0039427,9.93274322 19,8.82 C18.9947069,7.32611905 17.7937313,6.11179924 16.3,6.09 Z M16.3,10.58 C15.5872504,10.5840498 14.9424278,10.1578167 14.6668597,9.5004808 C14.3912915,8.84314485 14.5393913,8.08450315 15.0419515,7.57907112 C15.5445118,7.07363908 16.3022973,6.92121901 16.9611928,7.19303723 C17.6200882,7.46485546 18.0499885,8.10723892 18.05,8.82 C18.0500156,9.78812927 17.2681136,10.5744993 16.3,10.58 L16.3,10.58 Z M16.3,7.17 C15.3874423,7.19201074 14.663877,7.94670024 14.6802958,8.85937564 C14.6967147,9.77205105 15.4469566,10.500227 16.3597155,10.4894006 C17.2724743,10.4785742 18.0052335,9.73280808 18,8.82 C17.9974455,8.37445868 17.8158935,7.94864706 17.4961764,7.6383334 C17.1764593,7.32801973 16.7454191,7.15925657 16.3,7.17 L16.3,7.17 Z" id="Shape" fill="#282828"></path>
            <path d="M16.3,20.37 C16.0017662,20.37 15.76,20.1282338 15.76,19.83 L15.76,13 C15.76,12.7017662 16.0017662,12.46 16.3,12.46 C16.5982338,12.46 16.84,12.7017662 16.84,13 L16.84,19.82 C16.8426846,19.9649416 16.7869792,20.1048758 16.6854171,20.2083187 C16.5838551,20.3117615 16.4449665,20.3700249 16.3,20.37 Z" id="Path" fill="#282827"></path>
            <path d="M16.3,20.42 C16.1426994,20.4227363 15.9910355,20.3614548 15.8797903,20.2502097 C15.7685452,20.1389645 15.7072637,19.9873006 15.71,19.83 L15.71,13 C15.71,12.674152 15.974152,12.41 16.3,12.41 C16.6236061,12.41535 16.88465,12.6763939 16.89,13 L16.89,19.82 C16.8926818,19.9782031 16.8317072,20.1308538 16.7207687,20.2436726 C16.6098303,20.3564914 16.4582259,20.4200227 16.3,20.42 L16.3,20.42 Z M16.3,12.52 C16.0293805,12.52 15.81,12.7393805 15.81,13.01 L15.81,19.83 C15.81,20.1061424 16.0338576,20.33 16.31,20.33 C16.5861424,20.33 16.81,20.1061424 16.81,19.83 L16.81,13 C16.8074215,12.868247 16.7518834,12.743086 16.6559225,12.6527698 C16.5599616,12.5624537 16.4316674,12.5145961 16.3,12.52 L16.3,12.52 Z" id="Shape" fill="#282828"></path>
            <path d="M20.43,23.49 L12.16,23.49 L12.16,17.58 C12.1488568,17.4299882 12.2007911,17.2821272 12.3032936,17.172032 C12.405796,17.0619367 12.5495754,16.9995867 12.7,17 C12.9982338,17 13.24,17.2417662 13.24,17.54 L13.24,22.37 L19.35,22.37 L19.35,17.58 C19.35,17.2817662 19.5917662,17.04 19.89,17.04 C20.1882338,17.04 20.43,17.2817662 20.43,17.58 L20.43,23.49 Z" id="Path" fill="#282827"></path>
            <path d="M20.48,23.54 L12.11,23.54 L12.11,17.54 C12.1360389,17.233823 12.3927198,16.9988948 12.7,17 C12.8573006,16.9972637 13.0089645,17.0585452 13.1202097,17.1697903 C13.2314548,17.2810355 13.2927363,17.4326994 13.29,17.59 L13.29,22.37 L19.29,22.37 L19.29,17.58 C19.29,17.254152 19.554152,16.99 19.88,16.99 C20.0373006,16.9872637 20.1889645,17.0485452 20.3002097,17.1597903 C20.4114548,17.2710355 20.4727363,17.4226994 20.47,17.58 L20.48,23.54 Z M12.21,23.44 L20.38,23.44 L20.38,17.58 C20.38,17.3038576 20.1561424,17.08 19.88,17.08 C19.6038576,17.08 19.38,17.3038576 19.38,17.58 L19.38,22.46 L13.19,22.46 L13.19,17.58 C13.19,17.3038576 12.9661424,17.08 12.69,17.08 C12.4138576,17.08 12.19,17.3038576 12.19,17.58 L12.21,23.44 Z" id="Shape" fill="#282828"></path>
            <path d="M9.83,23.49 C9.55408697,23.4860728 9.32552214,23.2747581 9.3,23 L9.3,16 C9.3,13.88 10.53,12.46 12.37,12.46 L20.23,12.46 C20.5282338,12.46 20.77,12.7017662 20.77,13 C20.77,13.2982338 20.5282338,13.54 20.23,13.54 L12.37,13.54 C10.9,13.54 10.37,14.81 10.37,16 L10.37,23 C10.3440995,23.2785519 10.1097509,23.4912016 9.83,23.49 Z" id="Path" fill="#282827"></path>
            <path d="M9.83,23.54 C9.52466713,23.5407269 9.27105663,23.3046068 9.25,23 L9.25,16 C9.25,13.85 10.5,12.41 12.37,12.41 L20.22,12.41 C20.545848,12.41 20.81,12.674152 20.81,13 C20.8127363,13.1573006 20.7514548,13.3089645 20.6402097,13.4202097 C20.5289645,13.5314548 20.3773006,13.5927363 20.22,13.59 L12.37,13.59 C10.94,13.59 10.42,14.83 10.42,16 L10.42,23 C10.398733,23.3085011 10.1391738,23.5460638 9.83,23.54 Z M12.37,12.54 C10.56,12.54 9.37,13.94 9.37,16.03 L9.37,23 C9.37,23.2761424 9.59385763,23.5 9.87,23.5 C10.1461424,23.5 10.37,23.2761424 10.37,23 L10.37,16 C10.37,14.78 10.91,13.49 12.37,13.49 L20.22,13.49 C20.4961424,13.49 20.72,13.2661424 20.72,12.99 C20.72,12.7138576 20.4961424,12.49 20.22,12.49 L12.37,12.54 Z" id="Shape" fill="#282828"></path>
            <path d="M22.76,23.49 C22.4617662,23.49 22.22,23.2482338 22.22,22.95 L22.22,16 C22.22,14.81 21.7,13.54 20.22,13.54 C19.9217662,13.54 19.68,13.2982338 19.68,13 C19.68,12.7017662 19.9217662,12.46 20.22,12.46 C22.06,12.46 23.29,13.88 23.29,16 L23.29,23 C23.2644779,23.2747581 23.035913,23.4860728 22.76,23.49 Z" id="Path" fill="#282827"></path>
            <path d="M22.76,23.54 C22.434152,23.54 22.17,23.275848 22.17,22.95 L22.17,16 C22.17,14.83 21.66,13.59 20.17,13.59 C20.014426,13.5900231 19.8653648,13.5275454 19.7563016,13.4166018 C19.6472385,13.3056582 19.5873177,13.1555508 19.59,13 C19.5899537,12.6780176 19.8480639,12.4154573 20.17,12.41 C22.05,12.41 23.3,13.85 23.3,16 L23.3,23 C23.280615,23.2898249 23.0498249,23.520615 22.76,23.54 Z M20.22,12.54 C19.9438576,12.54 19.72,12.7638576 19.72,13.04 C19.72,13.3161424 19.9438576,13.54 20.22,13.54 C21.73,13.54 22.27,14.83 22.27,16.05 L22.27,23 C22.27,23.2761424 22.4938576,23.5 22.77,23.5 C23.0461424,23.5 23.27,23.2761424 23.27,23 L23.27,16 C23.25,13.92 22,12.52 20.22,12.52 L20.22,12.54 Z" id="Shape" fill="#282828"></path>
        </g>
    </g>
</svg>