<?xml version="1.0" encoding="UTF-8"?>
<svg width="28px" height="32px" viewBox="0 0 28 32" version="1.1" xmlns="http://www.w3.org/2000/svg" xmlns:xlink="http://www.w3.org/1999/xlink">
    <!-- Generator: Sketch 53.2 (72643) - https://sketchapp.com -->
    <title>benefit-uncompromised-security</title>
    <desc>Created with Sketch.</desc>
    <g id="benefit-uncompromised-security" stroke="none" stroke-width="1" fill="none" fill-rule="evenodd">
        <g transform="translate(-1.000000, -1.000000)">
            <g id="Uncompromised_privacy_security" transform="translate(0.000000, 2.000000)">
                <path d="M22.29,1.9 C21.3229163,2.54160457 20.1905109,2.88896819 19.03,2.9 C17.2505419,2.90240039 15.5618184,2.11481783 14.42,0.75 L14.42,0.75 C14.080195,0.309861725 13.5560458,0.0514783446 13,0.05 C12.4535387,0.051608426 11.9363899,0.297345805 11.59,0.72 C10.4526714,2.07945498 8.77246205,2.86648116 7,2.87 C5.8360774,2.86090151 4.69992957,2.51345569 3.73,1.87 C3.17064853,1.52452503 2.4669272,1.51348189 1.89701109,1.84123585 C1.32709498,2.1689898 0.982714374,2.78278753 1,3.44 L1,15.69 C0.989167039,18.3899616 1.85213789,21.0209703 3.46,23.19 C5.91473821,26.4266488 9.11108076,29.0262493 12.78,30.77 C12.8563741,30.8008588 12.9376568,30.8177926 13.02,30.82 C13.0992467,30.8189502 13.1774697,30.8019453 13.25,30.77 C16.9189192,29.0262493 20.1152618,26.4266488 22.57,23.19 C24.1671721,21.0172449 25.0195136,18.3865613 25,15.69 L25,3.44 C25.0016311,2.79450258 24.6555948,2.19812418 24.0943812,1.87920578 C23.5331677,1.56028739 22.8437148,1.56823284 22.29,1.9 Z" id="Path" fill="#F8EFE9" fill-rule="nonzero"></path>
                <path d="M22.29,1.9 C21.3229163,2.54160457 20.1905109,2.88896819 19.03,2.9 C17.2505419,2.90240039 15.5618184,2.11481783 14.42,0.75 L14.42,0.75 C14.080195,0.309861725 13.5560458,0.0514783446 13,0.05 C12.4535387,0.051608426 11.9363899,0.297345805 11.59,0.72 C10.4526714,2.07945498 8.77246205,2.86648116 7,2.87 C5.8360774,2.86090151 4.69992957,2.51345569 3.73,1.87 C3.17064853,1.52452503 2.4669272,1.51348189 1.89701109,1.84123585 C1.32709498,2.1689898 0.982714374,2.78278753 1,3.44 L1,15.69 C0.989167039,18.3899616 1.85213789,21.0209703 3.46,23.19 C5.91473821,26.4266488 9.11108076,29.0262493 12.78,30.77 C12.8563741,30.8008588 12.9376568,30.8177926 13.02,30.82 C13.0992467,30.8189502 13.1774697,30.8019453 13.25,30.77 C16.9189192,29.0262493 20.1152618,26.4266488 22.57,23.19 C24.1671721,21.0172449 25.0195136,18.3865613 25,15.69 L25,3.44 C25.0016311,2.79450258 24.6555948,2.19812418 24.0943812,1.87920578 C23.5331677,1.56028739 22.8437148,1.56823284 22.29,1.9 Z M21.61,22.47 C19.3085483,25.4496327 16.3657872,27.872882 13,29.56 C9.636323,27.8739448 6.69660567,25.4503871 4.4,22.47 C2.95633783,20.5055438 2.18480848,18.1278306 2.2,15.69 L2.2,3.44 C2.198313,3.22684625 2.30984337,3.02880065 2.49298907,2.91973636 C2.67613477,2.81067207 2.90339529,2.80696579 3.09,2.91 C4.25331946,3.6675387 5.61177208,4.07055789 7,4.07 C9.13434374,4.07090208 11.1594021,3.12611899 12.53,1.49 C12.643223,1.34545891 12.8163943,1.26071552 13,1.26 C13.1861203,1.26199529 13.3618323,1.34619058 13.48,1.49 C14.8466249,3.12568371 16.8685394,4.07070895 19,4.07 C20.4185752,4.08642416 21.8103063,3.68282214 23,2.91 C23.185205,2.80536081 23.4123985,2.80852004 23.5946224,2.91826849 C23.7768462,3.02801694 23.8858834,3.22736031 23.88,3.44 L23.88,15.69 L23.88,15.69 C23.8749569,18.1357708 23.0786231,20.5142479 21.61,22.47 Z" id="Shape" fill="#282827" fill-rule="nonzero"></path>
                <rect id="Rectangle" fill="#FFFFFF" fill-rule="nonzero" x="9.4" y="14.09" width="7.26" height="6.59"></rect>
                <rect id="Rectangle" x="9.96" y="14.66" width="6.12" height="5.45" rx="0.19"></rect>
                <path d="M13,10.76 C11.9561818,10.76 11.11,11.6061818 11.11,12.65 L11.11,13.13 L14.89,13.13 L14.89,12.65 C14.89,11.6061818 14.0438182,10.76 13,10.76 L13,10.76 Z" id="Path"></path>
                <path d="M16.27,13.44 L16.18,13.44 L16.18,12.67 C16.18,11.5410407 15.5777074,10.4978393 14.6,9.93335967 C13.6222926,9.36888002 12.4177074,9.36888002 11.44,9.93335967 C10.4622926,10.4978393 9.85999998,11.5410407 9.86,12.67 L9.86,13.44 L9.76,13.44 C9.13061282,13.6214355 8.69535086,14.195005 8.69,14.85 L8.69,19.92 C8.68733593,20.3089458 8.83998002,20.6828767 9.11407242,20.9588464 C9.38816481,21.2348162 9.76104507,21.3900091 10.15,21.39 L15.88,21.39 C16.6918586,21.39 17.35,20.7318586 17.35,19.92 L17.35,14.85 C17.3467158,14.1910614 16.9053352,13.6148144 16.27,13.44 L16.27,13.44 Z M10.87,12.65 C10.87,11.4625878 11.8325878,10.5 13.02,10.5 C14.2074122,10.5 15.17,11.4625878 15.17,12.65 L15.17,13.39 L10.87,13.39 L10.87,12.65 Z M16.33,19.92 C16.33,20.1685281 16.1285281,20.37 15.88,20.37 L10.15,20.37 C9.90147186,20.37 9.7,20.1685281 9.7,19.92 L9.7,14.85 C9.7052986,14.6037 9.9037,14.4052986 10.15,14.4 L15.88,14.4 C16.1285281,14.4 16.33,14.6014719 16.33,14.85 L16.33,19.92 Z" id="Shape" fill="#282827" fill-rule="nonzero"></path>
                <rect id="Rectangle" fill="#282827" fill-rule="nonzero" x="12.63" y="16.25" width="1" height="2.27"></rect>
            </g>
            <path d="M23.33,1.54 C20.4967792,1.54 18.2,3.83677923 18.2,6.67 C18.2,9.50322077 20.4967792,11.8 23.33,11.8 C26.1632208,11.8 28.46,9.50322077 28.46,6.67 C28.46,5.30943941 27.9195194,4.00460383 26.9574578,3.04254221 C25.9953962,2.08048059 24.6905606,1.54 23.33,1.54 L23.33,1.54 Z" id="Path" fill="#FFFFFF" fill-rule="nonzero"></path>
            <path d="M23.33,12.33 C21.0357898,12.3299964 18.9676722,10.9474608 18.0906531,8.82749904 C17.213634,6.70753729 17.7005708,4.26798658 19.3242536,2.64716746 C20.9479363,1.02634834 23.3883428,0.543718657 25.5067531,1.42447861 C27.6251634,2.30523855 29.0040462,4.3757934 29,6.67 C28.994484,9.79754858 26.4575534,12.3300049 23.33,12.33 L23.33,12.33 Z M23.33,2.08 C20.795013,2.08 18.74,4.135013 18.74,6.67 C18.74,9.204987 20.795013,11.26 23.33,11.26 C25.864987,11.26 27.92,9.204987 27.92,6.67 C27.9226626,5.45184199 27.4399298,4.28280985 26.57856,3.42144 C25.7171902,2.56007016 24.548158,2.07733735 23.33,2.08 L23.33,2.08 Z" id="Shape" fill="#282827" fill-rule="nonzero"></path>
            <path d="M26.06,5.22 L23.06,8.61 C22.9885198,8.69000047 22.887241,8.73702275 22.78,8.74 C22.6945739,8.74090232 22.6121268,8.70864041 22.55,8.65 L20.66,7.15 C20.5034332,7.01676195 20.4771809,6.78486664 20.6,6.62 C20.730595,6.45854279 20.9666162,6.43182341 21.13,6.56 L22.74,7.84 L25.5,4.72 C25.6475136,4.57646784 25.8824864,4.57646784 26.03,4.72 C26.1684449,4.85353237 26.1814853,5.07087182 26.06,5.22 Z" id="Path" fill="#282827" fill-rule="nonzero"></path>
        </g>
    </g>
</svg>