<?xml version="1.0" encoding="UTF-8"?>
<svg width="34px" height="29px" viewBox="0 0 34 29" version="1.1" xmlns="http://www.w3.org/2000/svg" xmlns:xlink="http://www.w3.org/1999/xlink">
    <!-- Generator: Sketch 53.2 (72643) - https://sketchapp.com -->
    <title>gain-economic-adv</title>
    <desc>Created with Sketch.</desc>
    <g id="gain-economic-adv" stroke="none" stroke-width="1" fill="none" fill-rule="evenodd">
        <g>
            <polyline id="Path" fill="#F8EFE9" fill-rule="nonzero" points="28.28 14.49 30.5 16.23 32.34 15.46 33.22 16.34 32.97 17.77 28.71 21 23.16 24.95 18.85 27.7 17.65 27.7 11.59 25.17 4.63 23.32 0.2 24.99 1.12 18.54 1.33 17.69 5.73 16.19 9.38 15.02 12.78 15.46 20.16 16.71 23.02 17.36 28.28 14.49"></polyline>
            <path d="M19.71,21.86 C20.4540272,21.9418627 21.1936468,21.6719016 21.71,21.13 L22.22,20.68 L22.27,20.68 L17.59,20.68 L17.59,20.68 C18.1519108,21.2904117 18.8951161,21.7040825 19.71,21.86 Z" id="Path"></path>
            <path d="M27.23,15.56 L24,17 C24.1042882,17.0923408 24.2012465,17.1926424 24.29,17.3 L24.35,17.36 C24.3897298,17.4041764 24.4264776,17.4509463 24.46,17.5 C24.5939517,17.692081 24.6953115,17.9049366 24.76,18.13 C24.7646835,18.1598172 24.7646835,18.1901828 24.76,18.22 C24.76,18.22 24.76,18.22 24.76,18.27 L24.76,18.27 C24.7952895,18.3903627 24.8154448,18.5146534 24.82,18.64 L24.82,18.64 L24.82,18.64 L25.62,18.15 L28.91,16.15 L28.69,15.87 C28.3170419,15.4697556 27.7334149,15.3458348 27.23,15.56 Z" id="Path"></path>
            <path d="M33.32,15.69 L33.32,15.69 C32.7587213,14.9925352 31.7701728,14.8135738 31,15.27 L30.13,15.8 L29.71,15.26 C29.2537215,14.6672215 28.5480484,14.3199269 27.8,14.32 C27.4551562,14.3244103 27.1148549,14.3992766 26.8,14.54 L22.49,16.54 L22,16.46 L10.23,14.77 C9.35516495,14.6404393 8.46185599,14.7297701 7.63,15.03 L0.73,17.47 C0.616881727,17.5105758 0.524692831,17.594712 0.473975233,17.7036609 C0.423257635,17.8126098 0.418225461,17.9373189 0.46,18.05 C0.495589401,18.165777 0.579429348,18.2605526 0.69,18.31 C0.801388818,18.3596286 0.928611182,18.3596286 1.04,18.31 L7.94,15.87 C8.6324365,15.6264138 9.3736105,15.5543552 10.1,15.66 L22.45,17.43 C23.0302405,17.4973957 23.5242092,17.8833088 23.73,18.43 C23.8149951,18.6641548 23.7814628,18.9249612 23.64,19.13 C23.6013913,19.1898795 23.5542245,19.2437844 23.5,19.29 L23.5,19.29 C23.4540966,19.337846 23.4038846,19.3813631 23.35,19.42 L23.29,19.42 L12.56,19.42 C12.305949,19.42 12.1,19.625949 12.1,19.88 C12.1,20.134051 12.305949,20.34 12.56,20.34 L16,20.34 L16.06,20.43 C16.8624775,21.6915929 18.1070837,22.6081081 19.55,23 C20.6085319,23.116646 21.6631507,22.749183 22.42,22 C22.74,21.7 23.1,21.41 23.53,21.07 L23.62,21.01 L23.7,20.95 L24.08,20.67 C24.41,20.43 24.75,20.2 25.08,19.99 L25.14,19.99 L26.32,19.25 L31.46,16.14 C31.8484164,15.9704794 32.3024901,16.0983553 32.5453591,16.445658 C32.7882281,16.7929607 32.7525171,17.2633434 32.46,17.57 L30.68,19 C28.895556,20.5311507 27.0259009,21.9601014 25.08,23.28 L19.84,26.83 C18.9794945,27.4158214 17.8914766,27.5569295 16.91,27.21 L6.71,23.72 C5.7347254,23.3734327 4.66541807,23.4019475 3.71,23.8 L0.29,25.2 C0.17317169,25.2412762 0.081276168,25.3331717 0.04,25.45 C-0.00505969743,25.5623159 -0.00505969743,25.6876841 0.04,25.8 C0.090858505,25.9104767 0.179523327,25.9991415 0.29,26.05 C0.403300647,26.0896334 0.526699353,26.0896334 0.64,26.05 L4.1,24.64 C4.49373599,24.4799311 4.91497349,24.3984012 5.34,24.4 C5.70749617,24.3996299 6.07248852,24.4604619 6.42,24.58 L16.62,28.12 C17.06436,28.2714865 17.5305287,28.3491813 18,28.35 C18.8440551,28.3512476 19.6692752,28.1005478 20.37,27.63 L25.6,24.08 C27.5761158,22.7450143 29.4726707,21.295886 31.28,19.74 L33.09,18.18 C33.8298057,17.5500089 33.931889,16.4448464 33.32,15.69 Z M22.32,20.83 L21.81,21.28 C21.3283371,21.7701435 20.6767963,22.0565351 19.99,22.08 L19.69,22.08 C18.8487744,21.9045674 18.0832204,21.471103 17.5,20.84 L17.11,20.46 L22.79,20.46 L22.32,20.83 Z M29.24,16.33 L25.84,18.39 C25.58,18.54 25.32,18.71 25.05,18.88 L25.05,18.88 L24.72,19.08 L24.72,18.7 C24.713805,18.5846594 24.6936582,18.4704942 24.66,18.36 L24.66,18.36 C24.661277,18.3366841 24.661277,18.3133159 24.66,18.29 C24.6641151,18.2668481 24.6641151,18.2431519 24.66,18.22 C24.5953967,18.0171873 24.5010342,17.8250923 24.38,17.65 C24.3589236,17.6068582 24.3281139,17.569202 24.29,17.54 L24.23,17.47 C24.1150972,17.3287101 23.9842263,17.2011948 23.84,17.09 L23.71,16.99 L27.2,15.4 C27.835351,15.1074225 28.5884711,15.2894955 29.02,15.84 L29.38,16.29 L29.24,16.33 Z" id="Shape" fill="#282828" fill-rule="nonzero"></path>
            <path d="M20.83,1.19 L22.54,3.19 L19,6.22 L16.43,3.06 C16.3391184,2.95079812 16.2107315,2.87947206 16.07,2.86 L16,2.86 C15.8710953,2.85753547 15.7460407,2.90398433 15.65,2.99 L8.33,9.28 C8.22221759,9.36948546 8.15691893,9.5000828 8.15,9.64 C8.1374538,9.78069114 8.18053272,9.92069763 8.27,10.03 C8.46851667,10.2459686 8.8000535,10.2721425 9.03,10.09 L16,4.15 L18.59,7.32 C18.6845762,7.42985615 18.8162852,7.50105018 18.96,7.52 C19.1017797,7.52767567 19.2411817,7.48120835 19.35,7.39 L23.24,4 L25,6 L27,0 L20.83,1.19 Z" id="Path" fill="#282828" fill-rule="nonzero"></path>
        </g>
    </g>
</svg>