<?xml version="1.0" encoding="UTF-8"?>
<svg width="33px" height="31px" viewBox="0 0 33 31" version="1.1" xmlns="http://www.w3.org/2000/svg" xmlns:xlink="http://www.w3.org/1999/xlink">
    <!-- Generator: Sketch 53.2 (72643) - https://sketchapp.com -->
    <title>manage-lesser</title>
    <desc>Created with Sketch.</desc>
    <g id="manage-lesser" stroke="none" stroke-width="1" fill="none" fill-rule="evenodd">
        <g>
            <path d="M15.89,13 C11.7738615,13.0055176 8.4399963,16.3438579 8.44,20.46 C8.39707328,20.8223455 8.08987934,21.0952946 7.725,21.0952946 C7.36012066,21.0952946 7.05292672,20.8223455 7.01,20.46 C7.01551097,15.557996 10.987996,11.585511 15.89,11.58 C16.2821222,11.58 16.6,11.8978778 16.6,12.29 C16.6,12.6821222 16.2821222,13 15.89,13 Z" id="Path"></path>
            <rect id="Rectangle" x="11.16" y="24.79" width="10.49" height="1.11"></rect>
            <path d="M16.36,8.26 L16.36,8.26 C23.3457292,8.27654084 29.0000196,13.9442512 29,20.93 L29,23.93 L3.69,23.93 L3.69,20.93 C3.69,13.9325522 9.36255222,8.26 16.36,8.26 Z" id="Path" fill="#F7EFE8" fill-rule="nonzero"></path>
            <path d="M29.72,26.1 L22.88,26.1 L22.88,24.59 L29.07,24.59 C29.2069846,24.5926865 29.339289,24.5401428 29.4371064,24.4442066 C29.5349238,24.3482703 29.5900263,24.217011 29.59,24.08 L29.59,20.91 C29.5660486,13.8711244 24.030921,8.08539929 17,7.75 L16.91,7.75 L16.91,4.19 L17.19,4.19 C18.2911777,4.11656133 19.1476193,3.20328721 19.1502533,2.09966648 C19.1528872,0.996045745 18.3008147,0.0786940244 17.2,0 L15.61,0 C14.5090371,0.0761096389 13.6548275,0.991409455 13.6548275,2.095 C13.6548275,3.19859055 14.5090371,4.11389036 15.61,4.19 L15.89,4.19 L15.89,7.74 L15.8,7.74 C8.76856861,8.07596939 3.23797684,13.8705512 3.23,20.91 L3.23,24.08 C3.23,24.3616652 3.45833478,24.59 3.74,24.59 L9.93,24.59 L9.93,26.1 L3.1,26.1 C2.31698079,26.0458698 1.56913263,26.4329153 1.16115542,27.1034403 C0.753178215,27.7739653 0.753178215,28.6160347 1.16115542,29.2865597 C1.56913263,29.9570847 2.31698079,30.3441302 3.1,30.29 L29.72,30.29 C30.8209629,30.2138904 31.6751725,29.2985905 31.6751725,28.195 C31.6751725,27.0914095 30.8209629,26.1761096 29.72,26.1 Z M15.61,3.17 C15.0190553,3.17 14.54,2.69094468 14.54,2.1 C14.54,1.50905532 15.0190553,1.03 15.61,1.03 L17.2,1.03 C17.7909447,1.03 18.27,1.50905532 18.27,2.1 C18.27,2.69094468 17.7909447,3.17 17.2,3.17 L15.61,3.17 Z M4.25,23.56 L4.25,20.91 C4.438675,14.3327073 9.82500167,9.09867607 16.405,9.09867607 C22.9849983,9.09867607 28.371325,14.3327073 28.56,20.91 L28.56,23.56 L4.25,23.56 Z M21.85,24.56 L21.85,26.1 L11,26.1 L11,24.59 L21.85,24.56 Z M29.72,29.24 L3.1,29.24 C2.50905532,29.24 2.03,28.7609447 2.03,28.17 C2.03,27.5790553 2.50905532,27.1 3.1,27.1 L29.72,27.1 C30.3109447,27.1 30.79,27.5790553 30.79,28.17 C30.79,28.7609447 30.3109447,29.24 29.72,29.24 Z" id="Shape" fill="#000000" fill-rule="nonzero"></path>
            <path d="M15.89,11.74 C11.0961684,11.74 7.21,15.6261684 7.21,20.42 C7.27377295,20.64325 7.47782003,20.7971714 7.71,20.7971714 C7.94217997,20.7971714 8.14622705,20.64325 8.21,20.42 C8.2099964,16.193401 11.6334046,12.7655178 15.86,12.76 C16.0981603,12.7121304 16.2695012,12.5029235 16.2695012,12.26 C16.2695012,12.0170765 16.0981603,11.8078696 15.86,11.76 L15.89,11.74 Z" id="Path" fill="#000000" fill-rule="nonzero"></path>
            <path d="M24.2,3.62 C24.1375403,3.60512277 24.0724597,3.60512277 24.01,3.62 C23.9440729,3.60595705 23.8759271,3.60595705 23.81,3.62 C23.6877657,3.67574052 23.5912603,3.77582025 23.54,3.9 C23.4873136,4.02588629 23.4872766,4.16763661 23.5398973,4.29355037 C23.592518,4.41946414 23.6934063,4.51903671 23.82,4.57 C27.3070473,5.95165607 30.1575975,8.57772548 31.82,11.94 C31.9093001,12.1116446 32.0865157,12.219515 32.28,12.22 C32.4994763,12.221329 32.6941599,12.0793722 32.76,11.87 C32.8151923,11.7458581 32.8151923,11.6041419 32.76,11.48 C30.9784942,7.89034805 27.9282469,5.08953694 24.2,3.62 L24.2,3.62 Z" id="Path" fill="#000000" fill-rule="nonzero"></path>
            <path d="M23.77,7.79 C25.6755642,8.76154356 27.2953567,10.2124641 28.47,12 C28.6268968,12.2341664 28.9417946,12.3006941 29.18,12.15 C29.2898028,12.0736313 29.3680149,11.9598683 29.4,11.83 C29.4297266,11.6945366 29.4006567,11.5528207 29.32,11.44 C28.0560578,9.49811263 26.3042958,7.92221645 24.24,6.87 C24.1147251,6.82043133 23.9752749,6.82043133 23.85,6.87 C23.7202461,6.9092224 23.6119776,6.99944615 23.55,7.12 C23.5004313,7.2452749 23.5004313,7.3847251 23.55,7.51 C23.5864872,7.62716886 23.6647903,7.72682733 23.77,7.79 Z" id="Path" fill="#000000" fill-rule="nonzero"></path>
        </g>
    </g>
</svg>