<?xml version="1.0" encoding="UTF-8"?>
<svg width="46px" height="26px" viewBox="0 0 46 26" version="1.1" xmlns="http://www.w3.org/2000/svg" xmlns:xlink="http://www.w3.org/1999/xlink">
    <!-- Generator: Sketch 53.2 (72643) - https://sketchapp.com -->
    <title>premium-workspaces</title>
    <desc>Created with Sketch.</desc>
    <g id="premium-workspaces" stroke="none" stroke-width="1" fill="none" fill-rule="evenodd">
        <g fill-rule="nonzero">
            <rect id="Rectangle" fill="#FFFFFF" x="0.279607843" y="22.1341176" width="43.1137255" height="2.77803922"></rect>
            <polygon id="Path" fill="#F7EFE8" points="40.2996078 6.04313725 35.3298039 10.0207843 32.4705882 5.12313725 38.5407843 2.76"></polygon>
            <rect id="Rectangle" fill="#F7EFE8" x="4.06784314" y="0.79372549" width="24.8129412" height="13.7007843"></rect>
            <path d="M1.38901961,21.5839216 L0.20745098,21.5839216 C0.0928789676,21.5839216 1.40310249e-17,21.6768005 0,21.7913725 L0,25.1917647 C1.40310249e-17,25.3063367 0.0928789676,25.3992157 0.20745098,25.3992157 L43.9886275,25.3992157 C44.1031995,25.3992157 44.1960784,25.3063367 44.1960784,25.1917647 L44.1960784,21.7913725 C44.1960784,21.6768005 44.1031995,21.5839216 43.9886275,21.5839216 L21.872549,21.5839216 L21.872549,20.4023529 C21.872549,19.9042138 21.4687274,19.5003922 20.9705882,19.5003922 L19.6537255,19.5003922 L19.1576471,17.7505882 L28.6192157,17.7505882 C28.8584306,17.7505882 29.0878478,17.6555605 29.2569983,17.48641 C29.4261487,17.3172596 29.5211765,17.0878423 29.5211765,16.8486275 L29.5211765,0.901960784 C29.5211765,0.403821598 29.1173549,3.0502228e-17 28.6192157,0 L4.33843137,0 C3.84029219,-3.0502228e-17 3.43647059,0.403821598 3.43647059,0.901960784 L3.43647059,16.8396078 C3.43647059,17.337747 3.84029219,17.7415686 4.33843137,17.7415686 L13.8,17.7415686 L13.3039216,19.4913725 L11.9960784,19.4913725 C11.4979392,19.4913725 11.0941176,19.8951941 11.0941176,20.3933333 L11.0941176,21.5839216 L1.38901961,21.5839216 Z M4.50980392,1.0372549 L28.4929412,1.0372549 L28.4929412,14.007451 L4.50980392,14.007451 L4.50980392,1.0372549 Z M4.50980392,16.7584314 L4.50974321,14.8282353 L28.4929412,14.8282353 L28.4929412,16.7584314 C28.4929412,16.7990979 28.4767865,16.8380988 28.4480309,16.8668544 C28.4192753,16.89561 28.3802744,16.9117647 28.3396078,16.9117647 L4.62705882,16.9117647 C4.55666991,16.8947542 4.50777767,16.8308182 4.50980392,16.7584314 Z M18.6164706,19.4643137 L14.4313725,19.4643137 L14.927451,17.7145098 L18.0392157,17.7145098 L18.6164706,19.4643137 Z M12.167451,20.3662745 L20.8352941,20.3662745 L20.8352941,21.5839216 L12.1223529,21.5839216 L12.167451,20.3662745 Z M43.2039216,24.5152941 L1.0372549,24.5152941 L1.0372549,22.4678431 L43.1588235,22.4678431 L43.2039216,24.5152941 Z" id="Shape" fill="#282827"></path>
            <path d="M39.352549,21.5839216 L42.9603922,14.3682353 C43.1127272,14.4124652 43.2708034,14.4337447 43.4294118,14.4313725 C44.0432827,14.4769697 44.631072,14.1753021 44.9519326,13.6499782 C45.2727931,13.1246543 45.2727931,12.4639731 44.9519326,11.9386493 C44.631072,11.4133254 44.0432827,11.1116578 43.4294118,11.1572549 C43.2288858,11.1557642 43.0299125,11.1924978 42.8431373,11.2654902 L39.9388235,6.95411765 L40.3988235,6.58431373 C40.6613334,6.36216095 40.7360891,5.98838237 40.5792157,5.68235294 L38.9827451,2.84117647 C38.8080222,2.51983372 38.4225883,2.37722319 38.0807843,2.50745098 L32.5337255,4.42862745 C32.3293924,4.50191892 32.1675743,4.66127747 32.0911622,4.86446423 C32.0147501,5.06765098 32.03146,5.29414822 32.1368627,5.48392157 L34.7254902,10.0478431 C34.8279739,10.2367675 35.0102592,10.3693386 35.2215686,10.4086275 L35.3568627,10.4086275 C35.5242682,10.4088098 35.6866585,10.3514956 35.8168627,10.2462745 L39.2443137,7.54039216 L42.112549,11.7254902 C41.8832648,12.0086185 41.7589822,12.3623458 41.7607843,12.7266667 C41.76262,13.1329915 41.9134565,13.5245245 42.1847059,13.8270588 L38.3694118,21.5568627 L39.352549,21.5839216 Z M39.7403922,5.95294118 L35.4019608,9.4254902 L32.9937255,5.20431373 L38.2701961,3.40039216 L39.7403922,5.95294118 Z M42.6447059,12.7266667 C42.6496456,12.3117564 42.9874132,11.9780098 43.4023529,11.9780392 C43.7865434,12.020146 44.077457,12.3446855 44.077457,12.7311765 C44.077457,13.1176674 43.7865434,13.4422069 43.4023529,13.4843137 C42.9942594,13.4845741 42.6592806,13.1615588 42.6447059,12.7537255 L42.6447059,12.7266667 Z" id="Shape" fill="#282827"></path>
            <path d="M39.4066667,21.6470588 L39.2984314,21.6019608 L42.9062745,14.305098 L42.9603922,14.305098 C43.1062422,14.3516622 43.2582751,14.3759874 43.4113725,14.3772549 C44.2393546,14.3147101 44.8792499,13.6246547 44.8792499,12.7943137 C44.8792499,11.9639728 44.2393546,11.2739174 43.4113725,11.2113725 C43.2197802,11.2115576 43.0299821,11.2482927 42.8521569,11.3196078 L42.8521569,11.3196078 L39.8576471,6.94509804 L40.3627451,6.53921569 C40.6432971,6.32659883 40.7139009,5.93435563 40.525098,5.6372549 L38.9286275,2.86823529 C38.7686746,2.58735856 38.4323654,2.4588809 38.1258824,2.56156863 L32.5517647,4.50980392 C32.3634642,4.57398242 32.2142756,4.71985571 32.1458824,4.90666667 C32.0652288,5.08434764 32.0652288,5.28820138 32.1458824,5.46588235 L34.7345098,10.0388235 C34.8333731,10.2087614 35.0012769,10.3272817 35.1945098,10.3635294 C35.3860377,10.4008498 35.5842536,10.3512958 35.7356863,10.2282353 L39.2172549,7.44117647 L42.1847059,11.7254902 L42.1847059,11.7254902 C41.9606002,12.0004283 41.8393923,12.344914 41.8419608,12.6996078 C41.8436748,13.0864714 41.9882176,13.4590707 42.2478431,13.7458824 L42.2478431,13.7458824 L42.2478431,13.7458824 L38.4145098,21.6470588 L38.3152941,21.6019608 L42.112549,13.9082353 C41.8507867,13.6006737 41.7041112,13.2116647 41.6976471,12.8078431 C41.6779143,12.4175676 41.7996089,12.033269 42.0403922,11.7254902 L39.2262745,7.5945098 L35.8529412,10.3003922 C35.669899,10.4453984 35.4332755,10.5045543 35.2035294,10.4627451 C34.9773486,10.4189083 34.7823585,10.2767968 34.6713725,10.074902 L32.0827451,5.51098039 C31.9671438,5.30736881 31.9473386,5.06310506 32.0286275,4.84352941 C32.1170322,4.6251326 32.2941101,4.45461317 32.5156863,4.3745098 L38.0898039,2.45333333 C38.4357134,2.345552 38.8101596,2.49158601 38.9917647,2.80509804 L40.5882353,5.62823529 C40.7798197,5.96314333 40.6995103,6.38763611 40.3988235,6.62941176 L39.974902,6.96313725 L42.8070588,11.1572549 C43.4446184,10.9071853 44.1700159,11.0651795 44.6458267,11.5577454 C45.1216374,12.0503112 45.2544427,12.7807402 44.982467,13.4092672 C44.7104913,14.0377942 44.0871332,14.4410168 43.4023529,14.4313725 C43.2527052,14.4325323 43.1037292,14.41125 42.9603922,14.3682353 L39.4066667,21.6470588 Z M43.4023529,13.6196078 C43.0687632,13.623254 42.7661536,13.4246252 42.6368043,13.1171124 C42.507455,12.8095995 42.5771026,12.454388 42.8130002,12.2184904 C43.0488978,11.9825928 43.4041093,11.9129452 43.7116222,12.0422945 C44.019135,12.1716438 44.2177638,12.4742534 44.2141176,12.8078431 C44.1901577,13.2384657 43.833641,13.5751759 43.4023529,13.5745098 L43.4023529,13.6196078 Z M43.4023529,12.1043137 C43.1170096,12.1006552 42.857722,12.2697255 42.7459814,12.5323056 C42.6342408,12.7948856 42.692185,13.0989535 42.8926639,13.302036 C43.0931427,13.5051184 43.3964376,13.5669811 43.6604376,13.4586378 C43.9244375,13.3502945 44.0968393,13.09321 44.0968627,12.8078431 C44.111978,12.614465 44.0455356,12.4235771 43.9136156,12.2813777 C43.7816956,12.1391782 43.59632,12.0586258 43.4023529,12.0592157 L43.4023529,12.1043137 Z M35.3839216,9.58784314 L35.3839216,9.52470588 L32.9486275,5.22235294 L33.0117647,5.22235294 L38.3333333,3.41843137 L38.3333333,3.46352941 L39.8215686,6.0972549 L39.8215686,6.0972549 L35.3839216,9.58784314 Z M33.0839216,5.24039216 L35.42,9.36235294 L39.6862745,5.96196078 L38.2431373,3.4545098 L33.0839216,5.24039216 Z" id="Shape" fill="#282827"></path>
        </g>
    </g>
</svg>