<?xml version="1.0" encoding="UTF-8"?>
<svg width="48px" height="24px" viewBox="0 0 48 24" version="1.1" xmlns="http://www.w3.org/2000/svg" xmlns:xlink="http://www.w3.org/1999/xlink">
    <!-- Generator: Sketch 53.2 (72643) - https://sketchapp.com -->
    <title>retain-org-culture</title>
    <desc>Created with Sketch.</desc>
    <g id="retain-org-culture" stroke="none" stroke-width="1" fill="none" fill-rule="evenodd">
        <g fill-rule="nonzero">
            <polygon id="Path" fill="#F7EFE8" points="19.3694118 11.1623529 14.2964706 14.6258824 13.4117647 23.5294118 34.1835294 23.5294118 33.2988235 14.6258824 27.84 11.1247059 27.3788235 17.1764706 23.8023529 14.4094118 19.8964706 16.7247059"></polygon>
            <path d="M27.9341176,4.96941176 C27.9341176,2.23058824 26.0517647,0 23.8023529,0 C21.5529412,0 19.6611765,2.23058824 19.6611765,4.96941176 C19.6611765,7.70823529 21.5435294,9.93882353 23.8023529,9.93882353 C26.0611765,9.93882353 27.9341176,7.70823529 27.9341176,4.96941176 Z M23.8023529,8.97882353 C22.0517647,8.97882353 20.6211765,7.18117647 20.6211765,4.96941176 C20.6211765,2.75764706 22.0517647,0.941176471 23.8023529,0.941176471 C25.5529412,0.941176471 26.9741176,2.73882353 26.9741176,4.95058824 C26.9741176,7.16235294 25.5529412,8.97882353 23.8023529,8.97882353 Z" id="Shape" fill="#282827"></path>
            <path d="M46.6823529,14.5788235 L46.6823529,14.5788235 C46.6650127,14.403499 46.5530179,14.2517642 46.3905882,14.1835294 L42.5129412,12.5647059 L42.4094118,12.5647059 L42.3529412,12.5647059 L42.2588235,12.5647059 L42.1741176,12.5647059 L42.1270588,12.5647059 L39.7835294,14.2211765 L37.4305882,12.5647059 C37.2908117,12.4840059 37.1186,12.4840059 36.9788235,12.5647059 L36.8470588,12.6211765 L36.8470588,12.6211765 L33.4870588,14.0235294 L27.9623529,10.4188235 L27.9623529,10.4188235 L27.8682353,10.4188235 L27.7835294,10.4188235 L27.5952941,10.4188235 L27.52,10.4188235 L27.4352941,10.4188235 L27.3882353,10.4188235 L23.8305882,13.7129412 L20.2541176,10.4094118 L20.2541176,10.4094118 L20.1694118,10.4094118 L20.0941176,10.4094118 L19.9152941,10.4094118 L19.7647059,10.3529412 C19.7368781,10.3461574 19.7078278,10.3461574 19.68,10.3529412 L19.68,10.3529412 L14.1176471,14.0235294 L10.6541176,12.5835294 C10.5109277,12.5030415 10.3361312,12.5030415 10.1929412,12.5835294 L7.84941176,14.2776471 L5.44941176,12.6023529 L5.36470588,12.6023529 L5.27058824,12.6023529 L5.18588235,12.6023529 L5.08235294,12.6023529 L5.03529412,12.6023529 L1.20470588,14.1835294 C1.04227626,14.2517642 0.930281459,14.403499 0.912941176,14.5788235 C0.470588235,18.7294118 0,23.2658824 0,23.5294118 C3.18284118e-17,23.7893105 0.210689529,24 0.470588235,24 C0.726377677,23.9903374 0.93151384,23.7852012 0.941176471,23.5294118 C0.941176471,23.1623529 1.49647059,18.0047059 1.81647059,15.0588235 L1.81647059,14.9741176 L5.13882353,13.5811765 L7.33176471,15.1341176 L7.33176471,20.1976471 C7.3917863,20.4077647 7.58383061,20.5526319 7.80235294,20.5526319 C8.02087527,20.5526319 8.21291958,20.4077647 8.27294118,20.1976471 L8.27294118,15.1152941 L10.4752941,13.5623529 L13.6282353,14.8894118 L13.6282353,14.9929412 C13.2705882,18.8705882 12.8847059,23.1435294 12.8847059,23.5294118 C12.9297596,23.7535626 13.1266603,23.9148247 13.3552941,23.9148247 C13.583928,23.9148247 13.7808286,23.7535626 13.8258824,23.5294118 C13.8258824,23.1247059 14.3247059,17.7035294 14.5882353,14.8894118 L14.5882353,14.8235294 L18.9647059,11.9529412 L19.2,17.1952941 C19.207091,17.3732851 19.3121676,17.5327116 19.4729412,17.6094118 C19.6356042,17.6844269 19.8260004,17.666465 19.9717647,17.5623529 L23.5294118,14.88 L27.0870588,17.5623529 C27.2328231,17.666465 27.4232193,17.6844269 27.5858824,17.6094118 C27.746656,17.5327116 27.8517326,17.3732851 27.8588235,17.1952941 L28.1035294,11.7082353 L32.9411765,14.8235294 L32.9411765,14.8894118 C33.2047059,17.7129412 33.7035294,23.1247059 33.7035294,23.5294118 C33.7485832,23.7535626 33.9454838,23.9148247 34.1741176,23.9148247 C34.4027515,23.9148247 34.5996521,23.7535626 34.6447059,23.5294118 C34.6447059,23.0023529 33.9764706,15.8117647 33.9011765,14.9929412 L33.9011765,14.8894118 L37.0635294,13.5623529 L39.2564706,15.1152941 L39.2564706,20.1788235 C39.3164922,20.3889412 39.5085365,20.5338084 39.7270588,20.5338084 C39.9455812,20.5338084 40.1376255,20.3889412 40.1976471,20.1788235 L40.1976471,15.1152941 L42.4,13.5623529 L45.7129412,14.9552941 L45.7129412,15.0588235 C46.0047059,17.8352941 46.5694118,23.1811765 46.5788235,23.5764706 C46.6388451,23.7865882 46.8308894,23.9314555 47.0494118,23.9314555 C47.2679341,23.9314555 47.4599784,23.7865882 47.52,23.5764706 C47.5952941,23.2658824 47.0588235,18.5317647 46.6823529,14.5788235 Z M20.1976471,16.2447059 L19.9905882,11.5388235 L22.8705882,14.2023529 L20.1976471,16.2447059 Z M27.0117647,16.2447059 L24.5458824,14.3623529 L27.2,11.9058824 L27.0117647,16.2447059 Z" id="Shape" fill="#282827"></path>
            <path d="M39.7552941,11.6423529 C41.5529412,11.6423529 43.0211765,9.89176471 43.0211765,7.74588235 C43.0211765,5.6 41.5529412,3.84941176 39.7552941,3.84941176 C37.9576471,3.84941176 36.4894118,5.64705882 36.4894118,7.74588235 C36.4894118,9.84470588 37.9482353,11.6423529 39.7552941,11.6423529 Z M39.7552941,4.80941176 C41.0258824,4.80941176 42.0517647,6.12705882 42.0517647,7.74588235 C42.0517647,9.36470588 41.0258824,10.6823529 39.7552941,10.6823529 C38.4847059,10.6823529 37.4494118,9.41176471 37.4494118,7.74588235 C37.4494118,6.08 38.4847059,4.80941176 39.7552941,4.80941176 Z" id="Shape" fill="#282827"></path>
            <path d="M7.84941176,11.6423529 C9.64705882,11.6423529 11.1058824,9.89176471 11.1058824,7.74588235 C11.1058824,5.6 9.64705882,3.84941176 7.84941176,3.84941176 C6.05176471,3.84941176 4.58352941,5.64705882 4.58352941,7.74588235 C4.58352941,9.84470588 6.04235294,11.6423529 7.84941176,11.6423529 Z M7.84941176,4.80941176 C9.11058824,4.80941176 10.1458824,6.12705882 10.1458824,7.74588235 C10.1458824,9.36470588 9.11058824,10.6823529 7.84941176,10.6823529 C6.58823529,10.6823529 5.54352941,9.41176471 5.54352941,7.74588235 C5.54352941,6.08 6.58823529,4.80941176 7.84941176,4.80941176 Z" id="Shape" fill="#282827"></path>
        </g>
    </g>
</svg>