<?xml version="1.0" encoding="UTF-8"?>
<svg width="39px" height="33px" viewBox="0 0 39 33" version="1.1" xmlns="http://www.w3.org/2000/svg" xmlns:xlink="http://www.w3.org/1999/xlink">
    <!-- Generator: Sketch 53.2 (72643) - https://sketchapp.com -->
    <title>team-motivated</title>
    <desc>Created with Sketch.</desc>
    <g id="team-motivated" stroke="none" stroke-width="1" fill="none" fill-rule="evenodd">
        <g>
            <path d="M28.44,7.25964834e-16 C24.3754296,-0.00874961774 20.7792332,2.63132623 19.5698763,6.51182425 C18.3605194,10.3923223 19.8201104,14.6080338 23.17,16.91 L23.17,12.31 C23.17,11.2440904 24.0340904,10.38 25.1,10.38 L31.78,10.38 C32.2926839,10.3773227 32.785144,10.5798016 33.1476712,10.9423288 C33.5101984,11.304856 33.7126773,11.7973161 33.71,12.31 L33.71,16.91 C37.0598896,14.6080338 38.5194806,10.3923223 37.3101237,6.51182425 C36.1007668,2.63132623 32.5045704,-0.00874961774 28.44,7.25964834e-16 Z M28.44,8.87 C27.4345793,8.86975979 26.6176496,8.05843812 26.6104837,7.05304288 C26.6033178,6.04764764 27.4085999,5.2247638 28.4139151,5.21019225 C29.4192302,5.19562071 30.2480236,5.99481944 30.27,7 C30.2807619,7.49223917 30.0927204,7.96804938 29.7483554,8.31994142 C29.4039905,8.67183346 28.9323568,8.87011763 28.44,8.87 L28.44,8.87 Z" id="Shape" fill="#F8EFE9" fill-rule="nonzero"></path>
            <rect id="Rectangle" fill="#F8EFE9" fill-rule="nonzero" x="25.51" y="18.55" width="5.86" height="10.02"></rect>
            <polyline id="Path" stroke="#282828" stroke-linecap="round" stroke-linejoin="round" points="25.51 28.57 25.51 18.55 31.37 18.55 31.37 28.57"></polyline>
            <path d="M28.44,18.55 L28.44,28.58" id="Path" stroke="#282828" stroke-linecap="round" stroke-linejoin="round"></path>
            <path d="M30.27,7 C30.27,8.01068109 29.4506811,8.83 28.44,8.83 C27.4293189,8.83 26.61,8.01068109 26.61,7 C26.61,5.98931891 27.4293189,5.17 28.44,5.17 C28.9253462,5.17 29.3908138,5.36280302 29.7340054,5.70599459 C30.077197,6.04918616 30.27,6.51465382 30.27,7 Z" id="Path" stroke="#282828" stroke-linecap="round" stroke-linejoin="round"></path>
            <path d="M28.44,10.45 L28.44,16.01" id="Path" stroke="#282828" stroke-linecap="round" stroke-linejoin="round"></path>
            <polyline id="Path" stroke="#282828" stroke-linecap="round" stroke-linejoin="round" points="25.51 14.17 25.51 18.55 31.37 18.55 31.37 14.17"></polyline>
            <path d="M23.17,18.55 L23.17,12.89 C23.17,11.54 23.89,10.45 25.24,10.45 L31.64,10.45" id="Path" stroke="#282828" stroke-linecap="round" stroke-linejoin="round"></path>
            <path d="M31.64,10.45 L31.64,10.45 C32.99,10.45 33.71,11.54 33.71,12.89 L33.71,18.55" id="Path" stroke="#282828" stroke-linecap="round" stroke-linejoin="round"></path>
            <rect id="Rectangle" fill="#F8EFE9" fill-rule="nonzero" x="7.41" y="1.04" width="6.91" height="7.04"></rect>
            <path d="M0.5,3.47 L7.66,3.47 L7.66,6.47 C7.66,7.58390926 7.21750127,8.65219569 6.42984848,9.43984848 C5.64219569,10.2275013 4.57390926,10.67 3.46,10.67 L0.5,10.67 L0.5,3.47 Z" id="Path" fill="#F8EFE9" fill-rule="nonzero"></path>
            <path d="M14.33,29.06 L14.33,1.16" id="Path" stroke="#282828" stroke-linecap="round" stroke-linejoin="round"></path>
            <path d="M7.41,1.16 L7.41,7.54 C7.4100097,9.10459173 6.14458203,10.3744909 4.58,10.38 L0.5,10.38 L0.5,3.47 L5.11,3.47 C5.7217345,3.47000578 6.30826908,3.22631282 6.73989137,2.79281391 C7.17151365,2.35931501 7.41265972,1.77172872 7.41,1.16 L14.33,1.16 L14.33,8.08 L7.41,8.08" id="Path" stroke="#282828" stroke-linecap="round" stroke-linejoin="round"></path>
            <path d="M8.03,32.26 L32.14,32.26" id="Path" stroke="#282828" stroke-linecap="round" stroke-linejoin="round"></path>
            <path d="M1.67,29.06 L38.5,29.06" id="Path" stroke="#282828" stroke-linecap="round" stroke-linejoin="round"></path>
        </g>
    </g>
</svg>