<?xml version="1.0" encoding="UTF-8"?>
<svg width="28px" height="25px" viewBox="0 0 28 25" version="1.1" xmlns="http://www.w3.org/2000/svg" xmlns:xlink="http://www.w3.org/1999/xlink">
    <!-- Generator: Sketch 53.2 (72643) - https://sketchapp.com -->
    <title>transition-quick</title>
    <desc>Created with Sketch.</desc>
    <g id="transition-quick" stroke="none" stroke-width="1" fill="none" fill-rule="evenodd">
        <g transform="translate(0.000000, -1.000000)" id="Path">
            <path d="M12.23,2.4 C6.50654351,2.50607794 1.85409563,7.04802642 1.61049777,12.7672805 C1.36689992,18.4865345 5.61629199,23.4076354 11.31,24 L11.31,20.66 C7.44392081,20.1861431 4.58626418,16.828238 4.73681071,12.9361377 C4.88735723,9.04403744 7.99585532,5.91690328 11.8869862,5.74309545 C15.7781171,5.56928763 19.1530431,8.40682222 19.65,12.27 L23,12.27 C22.485324,6.69844477 17.8252077,2.42775322 12.23,2.4 Z"></path>
            <path d="M15.4,2.7 C14.369187,2.404318 13.3023782,2.25287828 12.23,2.25 C9.3118458,2.24212555 6.51261955,3.40576786 4.46,5.48 C1.57861852,8.35538817 0.52072842,12.5869486 1.71,16.48 C3.02472106,20.8429616 6.9125377,23.9292899 11.46,24.22 L11.46,20.52 C7.62222962,20.1077769 4.75714032,16.7972011 4.9,12.94 C5.02594483,9.64251478 7.33693966,6.83443185 10.548588,6.07641753 C13.7602364,5.31840321 17.0829324,6.79682054 18.67,9.69 C19.1368329,10.5467331 19.4259389,11.4888785 19.52,12.46 L19.52,13.82 L23.18,13.82 L23.18,12.43 C22.875396,7.87929966 19.7721929,3.99830138 15.4,2.7 Z"></path>
            <path d="M27.12,12.72 L24.45,12.72 L24.45,12.44 C24.0309945,5.79810175 18.378019,0.710388378 11.7288304,0.990867642 C5.07964174,1.27134691 -0.12478978,6.81705263 0.017041393,13.4706428 C0.158872566,20.1242329 5.59489908,25.4431215 12.25,25.44 C12.51124,25.4400567 12.7245575,25.2311833 12.73,24.97 L12.73,19.77 C12.724688,19.5071351 12.5128649,19.295312 12.25,19.29 C8.99999756,19.3008437 6.31612892,16.7538374 6.15700578,13.5077146 C5.99788264,10.2615918 8.41977694,7.46430392 11.6552585,7.15723278 C14.89074,6.85016164 17.7956205,9.1418992 18.25,12.36 L18.3,12.7 L15.36,12.7 C15.1686385,12.700317 14.9957471,12.8142681 14.92,12.99 C14.8406733,13.1654076 14.8763356,13.3714562 15.01,13.51 L20.9,19.69 C20.9874675,19.7840544 21.1116652,19.8351946 21.24,19.83 L21.24,19.83 C21.3678676,19.8326279 21.4910569,19.7819029 21.58,19.69 L27.46,13.51 C27.5945751,13.3723931 27.6339381,13.1677056 27.56,12.99 C27.4747287,12.82539 27.3053793,12.7214711 27.12,12.72 Z" fill="#000000" fill-rule="nonzero"></path>
            <path d="M19.23,14.12 L19.23,12.48 C19.1431264,11.5539173 18.8674598,10.6554483 18.42,9.84 C16.9429623,6.97858966 13.7043498,5.49398033 10.5724385,6.24260663 C7.44052721,6.99123293 5.22337399,9.77994359 5.2,13 C5.06320284,16.6987553 7.81001196,19.8735252 11.49,20.27 L11.76,20.27 L11.76,24.53 L11.48,24.53 C7.15457792,24.2373286 3.37877209,21.4937053 1.76427004,17.4702347 C0.149767999,13.4467641 0.981760593,8.85416498 3.90511513,5.65276983 C6.82846967,2.45137468 11.3267954,1.20668827 15.48,2.45 C19.9739023,3.78473388 23.164287,7.77271468 23.48,12.45 L23.48,14.15 L19.23,14.12 Z" fill="#000000" fill-rule="nonzero"></path>
            <path d="M23.31,13.85 C23.31,13.79 23.31,12.85 23.31,12.42 C22.8790517,6.5055208 17.8789799,1.97211211 11.9506874,2.12086649 C6.02239481,2.26962087 1.25597938,7.048093 1.12220219,12.9767424 C0.988424997,18.9053919 5.53445097,23.8939949 11.45,24.31 L11.58,24.31 L11.58,20.41 L11.47,20.41 C7.71453165,20.0130194 4.90166168,16.7855183 5.02156221,13.0110303 C5.14146275,9.23654224 8.15350474,6.19407558 11.9265972,6.0362475 C15.6996896,5.87841943 18.955297,8.65871096 19.39,12.41 C19.39,12.41 19.46,13.5 19.39,13.81 L19.39,13.81 L16.87,13.81 L21.24,18.4 L25.61,13.81 L23.31,13.85 Z" stroke="#F8EFE9" stroke-width="0.4" fill="#F8EFE9" fill-rule="nonzero"></path>
        </g>
    </g>
</svg>